# Made in Blockbench 5.0.4
mtllib shackRed.mtl

o cube
v 0.4375 0.375 0.25
v 0.4375 0.375 -0.375
v 0.4375 0 0.25
v 0.4375 0 -0.375
v 0.1875 0.375 -0.375
v 0.1875 0.375 0.25
v 0.1875 0 -0.375
v 0.1875 0 0.25
vt 0.15625 0.421875
vt 0.21875 0.421875
vt 0.21875 0.328125
vt 0.15625 0.328125
vt 0 0.421875
vt 0.15625 0.421875
vt 0.15625 0.328125
vt 0 0.328125
vt 0.375 0.421875
vt 0.4375 0.421875
vt 0.4375 0.328125
vt 0.375 0.328125
vt 0.21875 0.421875
vt 0.375 0.421875
vt 0.375 0.328125
vt 0.21875 0.328125
vt 0.21875 0.421875
vt 0.15625 0.421875
vt 0.15625 0.578125
vt 0.21875 0.578125
vt 0.28125 0.578125
vt 0.21875 0.578125
vt 0.21875 0.421875
vt 0.28125 0.421875
vn 0 0 -1
vn 1 0 0
vn 0 0 1
vn -1 0 0
vn 0 1 0
vn 0 -1 0
usemtl m_78e4ce45-bf04-5f80-ae71-b577d2b19a0e
f 4/4/1 7/3/1 5/2/1 2/1/1
f 3/8/2 4/7/2 2/6/2 1/5/2
f 8/12/3 3/11/3 1/10/3 6/9/3
f 7/16/4 8/15/4 6/14/4 5/13/4
f 6/20/5 1/19/5 2/18/5 5/17/5
f 7/24/6 4/23/6 3/22/6 8/21/6
o cube
v 0.375 0.5 0.1875
v 0.375 0.5 0.0625
v 0.375 0.375 0.1875
v 0.375 0.375 0.0625
v 0.25 0.5 0.0625
v 0.25 0.5 0.1875
v 0.25 0.375 0.0625
v 0.25 0.375 0.1875
vt 0.609375 0.765625
vt 0.640625 0.765625
vt 0.640625 0.734375
vt 0.609375 0.734375
vt 0.578125 0.765625
vt 0.609375 0.765625
vt 0.609375 0.734375
vt 0.578125 0.734375
vt 0.671875 0.765625
vt 0.703125 0.765625
vt 0.703125 0.734375
vt 0.671875 0.734375
vt 0.640625 0.765625
vt 0.671875 0.765625
vt 0.671875 0.734375
vt 0.640625 0.734375
vt 0.640625 0.765625
vt 0.609375 0.765625
vt 0.609375 0.796875
vt 0.640625 0.796875
vt 0.671875 0.796875
vt 0.640625 0.796875
vt 0.640625 0.765625
vt 0.671875 0.765625
vn 0 0 -1
vn 1 0 0
vn 0 0 1
vn -1 0 0
vn 0 1 0
vn 0 -1 0
usemtl m_78e4ce45-bf04-5f80-ae71-b577d2b19a0e
f 12/28/7 15/27/7 13/26/7 10/25/7
f 11/32/8 12/31/8 10/30/8 9/29/8
f 16/36/9 11/35/9 9/34/9 14/33/9
f 15/40/10 16/39/10 14/38/10 13/37/10
f 14/44/11 9/43/11 10/42/11 13/41/11
f 15/48/12 12/47/12 11/46/12 16/45/12
o cube
v 0.502474855014466 0.3815089908766719 0.3125
v 0.502474855014466 0.3815089908766719 -0.4375
v 0.49431696800071284 0.31954368704080877 0.3125
v 0.49431696800071284 0.31954368704080877 -0.4375
v 0.13068303199928716 0.43045631295919123 -0.4375
v 0.13068303199928716 0.43045631295919123 0.3125
v 0.12252514498553396 0.3684910091233281 -0.4375
v 0.12252514498553396 0.3684910091233281 0.3125
vt 0.1875 0.609375
vt 0.28125 0.609375
vt 0.28125 0.59375
vt 0.1875 0.59375
vt 0 0.609375
vt 0.1875 0.609375
vt 0.1875 0.59375
vt 0 0.59375
vt 0.46875 0.609375
vt 0.5625 0.609375
vt 0.5625 0.59375
vt 0.46875 0.59375
vt 0.28125 0.609375
vt 0.46875 0.609375
vt 0.46875 0.59375
vt 0.28125 0.59375
vt 0.28125 0.609375
vt 0.1875 0.609375
vt 0.1875 0.796875
vt 0.28125 0.796875
vt 0.375 0.796875
vt 0.28125 0.796875
vt 0.28125 0.609375
vt 0.375 0.609375
vn 0 0 -1
vn 0.9914448613738104 -0.13052619222005157 0
vn 0 0 1
vn -0.9914448613738104 0.13052619222005157 0
vn 0.13052619222005157 0.9914448613738104 0
vn -0.13052619222005157 -0.9914448613738104 0
usemtl m_78e4ce45-bf04-5f80-ae71-b577d2b19a0e
f 20/52/13 23/51/13 21/50/13 18/49/13
f 19/56/14 20/55/14 18/54/14 17/53/14
f 24/60/15 19/59/15 17/58/15 22/57/15
f 23/64/16 24/63/16 22/62/16 21/61/16
f 22/68/17 17/67/17 18/66/17 21/65/17
f 23/72/18 20/71/18 19/70/18 24/69/18
o cube
v 0.125 0.3125 0.4375
v 0.125 0.3125 0.1875
v 0.125 0 0.4375
v 0.125 0 0.1875
v -0.4375 0.3125 0.1875
v -0.4375 0.3125 0.4375
v -0.4375 0 0.1875
v -0.4375 0 0.4375
vt 0.515625 0.390625
vt 0.65625 0.390625
vt 0.65625 0.3125
vt 0.515625 0.3125
vt 0.453125 0.390625
vt 0.515625 0.390625
vt 0.515625 0.3125
vt 0.453125 0.3125
vt 0.71875 0.390625
vt 0.859375 0.390625
vt 0.859375 0.3125
vt 0.71875 0.3125
vt 0.65625 0.390625
vt 0.71875 0.390625
vt 0.71875 0.3125
vt 0.65625 0.3125
vt 0.65625 0.390625
vt 0.515625 0.390625
vt 0.515625 0.453125
vt 0.65625 0.453125
vt 0.796875 0.453125
vt 0.65625 0.453125
vt 0.65625 0.390625
vt 0.796875 0.390625
vn 0 0 -1
vn 1 0 0
vn 0 0 1
vn -1 0 0
vn 0 1 0
vn 0 -1 0
usemtl m_78e4ce45-bf04-5f80-ae71-b577d2b19a0e
f 28/76/19 31/75/19 29/74/19 26/73/19
f 27/80/20 28/79/20 26/78/20 25/77/20
f 32/84/21 27/83/21 25/82/21 30/81/21
f 31/88/22 32/87/22 30/86/22 29/85/22
f 30/92/23 25/91/23 26/90/23 29/89/23
f 31/96/24 28/95/24 27/94/24 32/93/24
o cube
v 0.375 0.0625 0.1875
v 0.375 0.0625 -0.4375
v 0.375 0 0.1875
v 0.375 0 -0.4375
v -0.4375 0.0625 -0.4375
v -0.4375 0.0625 0.1875
v -0.4375 0 -0.4375
v -0.4375 0 0.1875
vt 0.15625 0.828125
vt 0.359375 0.828125
vt 0.359375 0.8125
vt 0.15625 0.8125
vt 0 0.828125
vt 0.15625 0.828125
vt 0.15625 0.8125
vt 0 0.8125
vt 0.515625 0.828125
vt 0.71875 0.828125
vt 0.71875 0.8125
vt 0.515625 0.8125
vt 0.359375 0.828125
vt 0.515625 0.828125
vt 0.515625 0.8125
vt 0.359375 0.8125
vt 0.359375 0.828125
vt 0.15625 0.828125
vt 0.15625 0.984375
vt 0.359375 0.984375
vt 0.5625 0.984375
vt 0.359375 0.984375
vt 0.359375 0.828125
vt 0.5625 0.828125
vn 0 0 -1
vn 1 0 0
vn 0 0 1
vn -1 0 0
vn 0 1 0
vn 0 -1 0
usemtl m_78e4ce45-bf04-5f80-ae71-b577d2b19a0e
f 36/100/25 39/99/25 37/98/25 34/97/25
f 35/104/26 36/103/26 34/102/26 33/101/26
f 40/108/27 35/107/27 33/106/27 38/105/27
f 39/112/28 40/111/28 38/110/28 37/109/28
f 38/116/29 33/115/29 34/114/29 37/113/29
f 39/120/30 36/119/30 35/118/30 40/117/30
o cube
v 0.1875 0.31166438255018114 0.5020101228530667
v 0.1875 0.34434778608055294 0.128437111068662
v 0.1875 0.24940221391944706 0.496562888931338
v 0.1875 0.28208561744981886 0.12298987714693338
v -0.5 0.34434778608055294 0.128437111068662
v -0.5 0.31166438255018114 0.5020101228530667
v -0.5 0.28208561744981886 0.12298987714693338
v -0.5 0.24940221391944706 0.496562888931338
vt 0.546875 0.484375
vt 0.71875 0.484375
vt 0.71875 0.46875
vt 0.546875 0.46875
vt 0.453125 0.484375
vt 0.546875 0.484375
vt 0.546875 0.46875
vt 0.453125 0.46875
vt 0.8125 0.484375
vt 0.984375 0.484375
vt 0.984375 0.46875
vt 0.8125 0.46875
vt 0.71875 0.484375
vt 0.8125 0.484375
vt 0.8125 0.46875
vt 0.71875 0.46875
vt 0.71875 0.484375
vt 0.546875 0.484375
vt 0.546875 0.578125
vt 0.71875 0.578125
vt 0.890625 0.578125
vt 0.71875 0.578125
vt 0.71875 0.484375
vt 0.890625 0.484375
vn 0 0.08715574274765818 -0.9961946980917455
vn 1 0 0
vn 0 -0.08715574274765818 0.9961946980917455
vn -1 0 0
vn 0 0.9961946980917455 0.08715574274765818
vn 0 -0.9961946980917455 -0.08715574274765818
usemtl m_78e4ce45-bf04-5f80-ae71-b577d2b19a0e
f 44/124/31 47/123/31 45/122/31 42/121/31
f 43/128/32 44/127/32 42/126/32 41/125/32
f 48/132/33 43/131/33 41/130/33 46/129/33
f 47/136/34 48/135/34 46/134/34 45/133/34
f 46/140/35 41/139/35 42/138/35 45/137/35
f 47/144/36 44/143/36 43/142/36 48/141/36