<?xml version="1.0" encoding="UTF-8" standalone="no"?>
<!-- Created with Inkscape (http://www.inkscape.org/) -->

<svg
   width="210mm"
   height="297mm"
   viewBox="0 0 210 297"
   version="1.1"
   id="svg1"
   inkscape:version="1.4 (86a8ad7, 2024-10-11)"
   sodipodi:docname="FactoryNotEnoughPeople.svg"
   xmlns:inkscape="http://www.inkscape.org/namespaces/inkscape"
   xmlns:sodipodi="http://sodipodi.sourceforge.net/DTD/sodipodi-0.dtd"
   xmlns:xlink="http://www.w3.org/1999/xlink"
   xmlns="http://www.w3.org/2000/svg"
   xmlns:svg="http://www.w3.org/2000/svg">
  <sodipodi:namedview
     id="namedview1"
     pagecolor="#ffffff"
     bordercolor="#000000"
     borderopacity="0.25"
     inkscape:showpageshadow="2"
     inkscape:pageopacity="0.0"
     inkscape:pagecheckerboard="0"
     inkscape:deskcolor="#d1d1d1"
     inkscape:document-units="mm"
     inkscape:zoom="0.34431468"
     inkscape:cx="1057.1725"
     inkscape:cy="765.28831"
     inkscape:window-width="1920"
     inkscape:window-height="991"
     inkscape:window-x="-9"
     inkscape:window-y="-9"
     inkscape:window-maximized="1"
     inkscape:current-layer="layer1" />
  <defs
     id="defs1">
    <linearGradient
       id="linearGradient55"
       inkscape:collect="always">
      <stop
         style="stop-color:#fff5a9;stop-opacity:1;"
         offset="0"
         id="stop54" />
      <stop
         style="stop-color:#ff9292;stop-opacity:1;"
         offset="1"
         id="stop55" />
    </linearGradient>
    <linearGradient
       id="linearGradient48"
       inkscape:collect="always">
      <stop
         style="stop-color:#ffe4b4;stop-opacity:1;"
         offset="0"
         id="stop48" />
      <stop
         style="stop-color:#ffbbab;stop-opacity:1;"
         offset="1"
         id="stop49" />
    </linearGradient>
    <linearGradient
       id="linearGradient28"
       inkscape:collect="always">
      <stop
         style="stop-color:#fff4b8;stop-opacity:1;"
         offset="0"
         id="stop28" />
      <stop
         style="stop-color:#ffb5a9;stop-opacity:1;"
         offset="1"
         id="stop29" />
    </linearGradient>
    <linearGradient
       id="linearGradient18"
       inkscape:collect="always">
      <stop
         style="stop-color:#fff4b8;stop-opacity:1;"
         offset="0"
         id="stop18" />
      <stop
         style="stop-color:#ffb5a9;stop-opacity:1;"
         offset="1"
         id="stop19" />
    </linearGradient>
    <linearGradient
       id="linearGradient11"
       inkscape:collect="always">
      <stop
         style="stop-color:#fff4b8;stop-opacity:1;"
         offset="0"
         id="stop11" />
      <stop
         style="stop-color:#ffb5a9;stop-opacity:1;"
         offset="1"
         id="stop14" />
    </linearGradient>
    <linearGradient
       id="linearGradient10"
       inkscape:collect="always">
      <stop
         style="stop-color:#fff4b8;stop-opacity:1;"
         offset="0"
         id="stop9" />
      <stop
         style="stop-color:#ffb5a9;stop-opacity:1;"
         offset="1"
         id="stop10" />
    </linearGradient>
    <linearGradient
       id="linearGradient8"
       inkscape:collect="always">
      <stop
         style="stop-color:#ff7727;stop-opacity:1;"
         offset="0"
         id="stop7" />
      <stop
         style="stop-color:#ff1300;stop-opacity:1;"
         offset="0.99869961"
         id="stop8" />
    </linearGradient>
    <linearGradient
       id="linearGradient12"
       inkscape:collect="always">
      <stop
         style="stop-color:#fff4b8;stop-opacity:1;"
         offset="0"
         id="stop12" />
      <stop
         style="stop-color:#ff9292;stop-opacity:1;"
         offset="1"
         id="stop13" />
    </linearGradient>
    <linearGradient
       id="linearGradient3"
       inkscape:collect="always">
      <stop
         style="stop-color:#ff8e29;stop-opacity:1;"
         offset="0"
         id="stop3" />
      <stop
         style="stop-color:#ff2d20;stop-opacity:1;"
         offset="0.99869961"
         id="stop4" />
    </linearGradient>
    <linearGradient
       id="linearGradient1"
       inkscape:collect="always">
      <stop
         style="stop-color:#fffe91;stop-opacity:1;"
         offset="0"
         id="stop1" />
      <stop
         style="stop-color:#ffb48f;stop-opacity:1;"
         offset="1"
         id="stop2" />
    </linearGradient>
    <inkscape:path-effect
       effect="fillet_chamfer"
       id="path-effect1"
       is_visible="true"
       lpeversion="1"
       nodesatellites_param="F,0,0,1,0,9.2604165,0,1 @ F,0,0,1,0,9.2604165,0,1 @ F,0,0,1,0,9.2604165,0,1 @ F,0,0,1,0,9.2604165,0,1"
       radius="35"
       unit="px"
       method="auto"
       mode="F"
       chamfer_steps="1"
       flexible="false"
       use_knot_distance="true"
       apply_no_radius="true"
       apply_with_radius="true"
       only_selected="false"
       hide_knots="false" />
    <linearGradient
       inkscape:collect="always"
       xlink:href="#linearGradient1"
       id="linearGradient2"
       x1="86.304848"
       y1="104.81033"
       x2="139.67015"
       y2="160.00278"
       gradientUnits="userSpaceOnUse"
       gradientTransform="translate(43.800777,-87.601551)" />
    <linearGradient
       inkscape:collect="always"
       xlink:href="#linearGradient3"
       id="linearGradient4"
       x1="86.304848"
       y1="104.81033"
       x2="139.67015"
       y2="160.00278"
       gradientUnits="userSpaceOnUse"
       gradientTransform="translate(43.800777,-87.601551)" />
    <linearGradient
       inkscape:collect="always"
       xlink:href="#linearGradient12"
       id="linearGradient13"
       x1="109.8789"
       y1="140.96539"
       x2="131.57242"
       y2="152.6241"
       gradientUnits="userSpaceOnUse"
       gradientTransform="matrix(0.99483926,0,0,0.99483926,44.969487,-86.60663)" />
    <linearGradient
       inkscape:collect="always"
       xlink:href="#linearGradient10"
       id="linearGradient5"
       gradientUnits="userSpaceOnUse"
       gradientTransform="matrix(0.82654538,0,0,0.82654538,-71.153174,-66.863202)"
       x1="109.8789"
       y1="140.96539"
       x2="131.57242"
       y2="152.6241" />
    <linearGradient
       inkscape:collect="always"
       xlink:href="#linearGradient8"
       id="linearGradient6"
       gradientUnits="userSpaceOnUse"
       gradientTransform="translate(-39.190164,-91.443724)"
       x1="86.304848"
       y1="104.81033"
       x2="139.67015"
       y2="160.00278" />
    <linearGradient
       inkscape:collect="always"
       xlink:href="#linearGradient1"
       id="linearGradient7"
       gradientUnits="userSpaceOnUse"
       gradientTransform="translate(-39.190164,-91.443724)"
       x1="86.304848"
       y1="104.81033"
       x2="139.67015"
       y2="160.00278" />
    <linearGradient
       inkscape:collect="always"
       xlink:href="#linearGradient11"
       id="linearGradient14"
       x1="411.20859"
       y1="120.06792"
       x2="451.16721"
       y2="163.29237"
       gradientUnits="userSpaceOnUse"
       gradientTransform="matrix(1.2140858,0,0,0.87889345,-433.68216,-75.091625)" />
    <linearGradient
       inkscape:collect="always"
       xlink:href="#linearGradient18"
       id="linearGradient19"
       x1="390.02728"
       y1="114.65096"
       x2="444.741"
       y2="168.80209"
       gradientUnits="userSpaceOnUse"
       gradientTransform="matrix(1.0959949,0,0,1.0959949,-380.82797,-102.33289)" />
    <linearGradient
       inkscape:collect="always"
       xlink:href="#linearGradient18"
       id="linearGradient20"
       gradientUnits="userSpaceOnUse"
       x1="390.02728"
       y1="114.65096"
       x2="444.741"
       y2="168.80209"
       gradientTransform="matrix(1.2666957,0,0,0.88861427,-455.23282,-45.772064)" />
    <linearGradient
       inkscape:collect="always"
       xlink:href="#linearGradient28"
       id="linearGradient29"
       x1="403.67361"
       y1="122.4902"
       x2="419.41214"
       y2="157.59348"
       gradientUnits="userSpaceOnUse"
       gradientTransform="translate(-338.87968,-91.443724)" />
    <linearGradient
       inkscape:collect="always"
       xlink:href="#linearGradient28"
       id="linearGradient14-4"
       x1="411.20859"
       y1="120.06792"
       x2="451.16721"
       y2="163.29237"
       gradientUnits="userSpaceOnUse"
       gradientTransform="matrix(1.1084697,0,0,0.80243649,-409.65045,70.897358)" />
    <linearGradient
       inkscape:collect="always"
       xlink:href="#linearGradient8"
       id="linearGradient44"
       gradientUnits="userSpaceOnUse"
       gradientTransform="translate(-57.751043,42.275806)"
       x1="86.304848"
       y1="104.81033"
       x2="139.67015"
       y2="160.00278" />
    <linearGradient
       inkscape:collect="always"
       xlink:href="#linearGradient1"
       id="linearGradient45"
       gradientUnits="userSpaceOnUse"
       gradientTransform="translate(-57.751043,42.275806)"
       x1="86.304848"
       y1="104.81033"
       x2="139.67015"
       y2="160.00278" />
    <linearGradient
       inkscape:collect="always"
       xlink:href="#linearGradient48"
       id="linearGradient49"
       x1="552.6701"
       y1="105.59652"
       x2="575.76562"
       y2="139.59151"
       gradientUnits="userSpaceOnUse"
       gradientTransform="matrix(0.95250715,0,0,0.95250715,-484.86079,66.701455)" />
    <linearGradient
       inkscape:collect="always"
       xlink:href="#linearGradient55"
       id="linearGradient52"
       gradientUnits="userSpaceOnUse"
       gradientTransform="matrix(1.1084697,0,0,0.80243649,-317.43829,68.207839)"
       x1="411.20859"
       y1="120.06792"
       x2="454.17508"
       y2="174.54388" />
    <linearGradient
       inkscape:collect="always"
       xlink:href="#linearGradient8"
       id="linearGradient53"
       gradientUnits="userSpaceOnUse"
       gradientTransform="translate(34.461116,39.586289)"
       x1="86.304848"
       y1="104.81033"
       x2="139.67015"
       y2="160.00278" />
    <linearGradient
       inkscape:collect="always"
       xlink:href="#linearGradient1"
       id="linearGradient54"
       gradientUnits="userSpaceOnUse"
       gradientTransform="translate(34.461116,39.586289)"
       x1="86.304848"
       y1="104.81033"
       x2="139.67015"
       y2="160.00278" />
  </defs>
  <g
     inkscape:label="Layer 1"
     inkscape:groupmode="layer"
     id="layer1">
    <path
       id="rect1"
       style="font-variation-settings:'wght' 618;opacity:1;fill:url(#linearGradient4);stroke:url(#linearGradient2);stroke-width:15.146;stroke-linecap:round;stroke-linejoin:round;stroke-dasharray:none;stroke-dashoffset:54.0601;stroke-opacity:1;paint-order:stroke markers fill"
       d="m 143.73628,24.781779 c -5.11438,0 -9.26041,4.14603 -9.26041,9.26042 v 38.15166 c 0,5.11439 4.14603,9.26042 9.26041,9.26042 h 10.81795 l 10.65929,18.46244 10.6593,-18.46244 h 10.81743 c 5.11439,0 9.26042,-4.14603 9.26042,-9.26042 v -38.15166 c 0,-5.11439 -4.14603,-9.26042 -9.26042,-9.26042 z"
       sodipodi:nodetypes="sssscccsssss"
       inkscape:export-filename="..\Extra UI\FactoriesNotEnoughPeopleError.png"
       inkscape:export-xdpi="150"
       inkscape:export-ydpi="150" />
    <path
       id="path11"
       style="fill:url(#linearGradient13);stroke-width:0.994842;stroke-linecap:round;stroke-linejoin:round;stroke-dashoffset:54.0601;paint-order:stroke markers fill"
       d="m 165.51964,31.238739 c -4.17129,0 -7.58559,3.41858 -7.58559,7.58972 0,3.39579 2.26325,6.28949 5.35523,7.24814 -0.002,0.0367 -0.006,0.0729 -0.006,0.11007 v 2.39003 l -9.83196,3.93309 c -1.1375,0.45703 -1.6981,1.76634 -1.24334,2.90474 0,5.2e-4 0,10e-4 0,0.002 0.45561,1.1389 1.76536,1.70028 2.90474,1.24592 l 8.17056,-3.26647 v 8.53178 l -8.64857,8.65063 c -0.8677,0.86796 -0.8677,2.2936 0,3.16157 0.86819,0.86912 2.29544,0.86912 3.16363,0 l 7.72098,-7.71995 7.72045,7.71995 c 0.86827,0.86959 2.2964,0.86959 3.16467,0 0.86769,-0.86797 0.86769,-2.29361 0,-3.16157 l -8.64805,-8.65063 v -8.53178 l 8.16849,3.26647 c 6.9e-4,0 0.001,0 0.002,0 1.13958,0.45484 2.44861,-0.10869 2.90421,-1.24799 0.45469,-1.1386 -0.10555,-2.44748 -1.24333,-2.90422 -6.9e-4,0 -0.001,0 -0.002,0 l -9.82937,-3.93309 v -2.39003 c 2e-5,-0.0372 -0.004,-0.0733 -0.006,-0.11007 3.09163,-0.95895 5.35472,-3.8527 5.35472,-7.24814 0,-4.17114 -3.41481,-7.58972 -7.5861,-7.58972 z m 0,3.60443 c 2.22468,0 3.98321,1.76037 3.98321,3.98529 0,2.22491 -1.75829,3.98115 -3.98321,3.98115 -2.22492,0 -3.98322,-1.75624 -3.98322,-3.98115 0,-2.22492 1.75854,-3.98529 3.98322,-3.98529 z"
       sodipodi:nodetypes="ssccccccccccccccccccccccccccsssssss" />
    <path
       id="path1"
       style="font-variation-settings:'wght' 618;opacity:1;fill:url(#linearGradient6);stroke:url(#linearGradient7);stroke-width:8.946;stroke-linecap:round;stroke-linejoin:round;stroke-dasharray:none;stroke-dashoffset:54.0601;stroke-opacity:1;paint-order:stroke markers fill"
       d="m 60.745336,20.939606 c -5.11438,0 -9.26041,4.14603 -9.26041,9.26042 v 38.15166 c 0,5.11439 4.14603,9.26042 9.26041,9.26042 h 10.81795 l 10.65929,18.46244 10.6593,-18.46244 h 10.817434 c 5.11439,0 9.26042,-4.14603 9.26042,-9.26042 v -38.15166 c 0,-5.11439 -4.14603,-9.26042 -9.26042,-9.26042 z"
       sodipodi:nodetypes="sssscccsssss"
       inkscape:export-filename="..\Extra UI\FactoriesNotEnoughPeopleError.png"
       inkscape:export-xdpi="150"
       inkscape:export-ydpi="150" />
    <path
       id="path2"
       style="fill:url(#linearGradient5);stroke-width:0;stroke-linecap:round;stroke-linejoin:round;stroke-dasharray:none;stroke-dashoffset:54.0601;paint-order:stroke markers fill"
       d="m 29.003876,31.046626 c -3.46564,0 -6.30236,2.84027 -6.30236,6.3058 0,2.82133 1.88039,5.22551 4.44931,6.02199 -0.002,0.0305 -0.005,0.0606 -0.005,0.0915 v 1.98572 l -8.16872,3.26774 c -0.94507,0.37971 -1.41083,1.46753 -1.033,2.41335 0,4.3e-4 0,8.3e-4 0,0.002 0.37853,0.94624 1.46671,1.41265 2.41335,1.03515 l 6.78837,-2.71389 v 7.08849 l -7.18552,7.18723 c -0.72091,0.72113 -0.72091,1.9056 0,2.62673 0.72132,0.7221 1.90713,0.7221 2.62845,0 l 6.41485,-6.41399 6.4144,6.41399 c 0.72139,0.72249 1.90793,0.72249 2.62931,0 0.72091,-0.72113 0.72091,-1.9056 0,-2.62673 l -7.18508,-7.18723 v -7.08849 l 6.78665,2.71389 c 5.7e-4,0 8.3e-4,0 0.002,0 0.9468,0.3779 2.03439,-0.0903 2.41292,-1.03687 0.37777,-0.94598 -0.0877,-2.03344 -1.033,-2.41292 -5.8e-4,0 -8.3e-4,0 -0.002,0 l -8.16656,-3.26774 v -1.98572 c 2e-5,-0.0309 -0.003,-0.0609 -0.005,-0.0915 2.56863,-0.79672 4.44888,-3.20095 4.44888,-6.02199 0,-3.46552 -2.83713,-6.30579 -6.30278,-6.30579 z m 0,2.99468 c 1.84834,0 3.30939,1.46258 3.30939,3.31112 0,1.84852 -1.46085,3.30767 -3.30939,3.30767 -1.84853,0 -3.30939,-1.45915 -3.30939,-3.30767 0,-1.84854 1.46106,-3.31112 3.30939,-3.31112 z"
       sodipodi:nodetypes="ssccccccccccccccccccccccccccsssssss" />
    <rect
       style="fill:none;stroke:url(#linearGradient14);stroke-width:2.89322;stroke-linecap:round;stroke-linejoin:round;stroke-dasharray:none;paint-order:stroke markers fill"
       id="rect10"
       width="17.959204"
       height="34.106297"
       x="88.417526"
       y="31.954859" />
    <rect
       style="fill:none;stroke:url(#linearGradient19);stroke-width:2.63039;stroke-linecap:round;stroke-linejoin:round;stroke-dasharray:none;paint-order:stroke markers fill"
       id="rect14"
       width="8.632555"
       height="2.0224016"
       x="93.012924"
       y="28.73456" />
    <rect
       style="fill:none;stroke:url(#linearGradient20);stroke-width:2.54627;stroke-linecap:round;stroke-linejoin:round;stroke-dasharray:none;stroke-opacity:1;paint-order:stroke markers fill"
       id="rect19"
       width="9.9770718"
       height="1.6397291"
       x="92.408554"
       y="60.495224" />
    <path
       id="path20"
       style="fill:url(#linearGradient29);fill-opacity:0.43553;stroke-linecap:round;stroke-linejoin:round;paint-order:stroke markers fill"
       d="m 71.866306,31.046476 c -3.43398,0 -6.24768,2.81421 -6.24768,6.2482 0,2.95421 2.08305,5.44786 4.85138,6.08748 v 2.61948 l -8.5726,3.21479 a 1.397,1.397 0 0 0 -0.81804,1.79885 1.397,1.397 0 0 0 1.79886,0.81856 l 7.59178,-2.84686 v 8.0946 l -7.12515,6.79132 a 1.397,1.397 0 0 0 -0.04702,1.9761 1.397,1.397 0 0 0 1.97456,0.04703 l 6.58202,-6.27352 6.7014,6.54896 a 1.397,1.397 0 0 0 1.97663,-0.02171 1.397,1.397 0 0 0 -0.02326,-1.97611 l -7.24607,-7.08173 v -8.10907 l 7.50962,2.8019 a 1.397,1.397 0 0 0 1.79886,-0.82011 1.397,1.397 0 0 0 -0.82062,-1.79679 l -8.48786,-3.16725 v -2.61844 c 2.76823,-0.63971 4.85139,-3.13336 4.85139,-6.08748 0,-3.43399 -2.81421,-6.2482 -6.2482,-6.2482 z m 0,2.79518 c 1.924,0 3.45302,1.52902 3.45302,3.45302 0,1.924 -1.52902,3.45301 -3.45302,3.45301 -1.92399,0 -3.45302,-1.52901 -3.45302,-3.45301 0,-1.924 1.52903,-3.45302 3.45302,-3.45302 z" />
    <path
       id="path1-1"
       style="font-variation-settings:'wght' 618;fill:url(#linearGradient44);stroke:url(#linearGradient45);stroke-width:8.946;stroke-linecap:round;stroke-linejoin:round;stroke-dasharray:none;stroke-dashoffset:54.0601;stroke-opacity:1;paint-order:stroke markers fill"
       d="m 42.184457,154.65913 c -5.11438,0 -9.26041,4.14603 -9.26041,9.26043 v 38.15166 c 0,5.11439 4.14603,9.26042 9.26041,9.26042 h 10.81795 l 10.65929,18.46244 10.6593,-18.46244 h 10.81743 c 5.11439,0 9.26042,-4.14603 9.26042,-9.26042 v -38.15166 c 0,-5.1144 -4.14603,-9.26043 -9.26042,-9.26043 z"
       sodipodi:nodetypes="sssscccsssss"
       inkscape:export-filename="..\Extra UI\FactoriesNotEnoughPeopleError.png"
       inkscape:export-xdpi="150"
       inkscape:export-ydpi="150" />
    <path
       id="rect10-4"
       style="fill:url(#linearGradient14-4);stroke-width:0.913009;stroke-linecap:round;stroke-linejoin:round;paint-order:stroke markers fill"
       d="m 71.227007,164.49027 a 1.2009033,1.2009033 0 0 0 -1.20217,1.20171 v 1.61923 h -2.9941 a 1.3208982,1.3208982 0 0 0 -1.32107,1.32106 v 31.13899 a 1.3208982,1.3208982 0 0 0 1.32107,1.32106 h 16.3968 a 1.3208982,1.3208982 0 0 0 1.32155,-1.32106 v -31.13899 a 1.3208982,1.3208982 0 0 0 -1.32155,-1.32106 h -3.11865 v -1.61923 a 1.2009033,1.2009033 0 0 0 -1.20028,-1.20171 z m -2.87662,5.46165 h 13.75608 v 28.49781 h -13.75608 z m 2.32366,23.57446 a 1.1624983,1.1624983 0 0 0 -1.16254,1.16255 v 1.49799 a 1.1624983,1.1624983 0 0 0 1.16254,1.16254 h 9.10876 a 1.1624983,1.1624983 0 0 0 1.16255,-1.16254 v -1.49799 a 1.1624983,1.1624983 0 0 0 -1.16255,-1.16255 z" />
    <path
       id="path20-2"
       style="fill:url(#linearGradient49);stroke-width:0.952502;stroke-linecap:round;stroke-linejoin:round;paint-order:stroke markers fill"
       d="m 51.920837,167.2829 c -3.27089,0 -5.95096,2.68057 -5.95096,5.95146 0,2.8139 1.98412,5.18913 4.62098,5.79836 v 2.49508 l -8.16547,3.06211 a 1.3306525,1.3306525 0 0 0 -0.77918,1.71342 1.3306525,1.3306525 0 0 0 1.71343,0.77968 l 7.23122,-2.71165 v 7.71016 l -6.78677,6.46879 a 1.3306525,1.3306525 0 0 0 -0.0447,1.88224 1.3306525,1.3306525 0 0 0 1.88081,0.0447 l 6.26939,-5.97558 6.38315,6.23795 a 1.3306525,1.3306525 0 0 0 1.88275,-0.0206 1.3306525,1.3306525 0 0 0 -0.0222,-1.88227 l -6.90194,-6.74539 v -7.72389 l 7.15297,2.66882 a 1.3306525,1.3306525 0 0 0 1.71342,-0.78116 1.3306525,1.3306525 0 0 0 -0.78164,-1.71145 l -8.08475,-3.01684 v -2.49407 c 2.63676,-0.60932 4.62098,-2.98455 4.62098,-5.79837 0,-3.2709 -2.68056,-5.95144 -5.95146,-5.95144 z m 0,2.66242 c 1.83262,0 3.28903,1.4564 3.28903,3.28904 0,1.83263 -1.45641,3.28902 -3.28903,3.28902 -1.83262,0 -3.28902,-1.45639 -3.28902,-3.28902 0,-1.83264 1.4564,-3.28904 3.28902,-3.28904 z" />
    <circle
       style="fill:none;fill-opacity:1;stroke:#75ff5b;stroke-width:2.794;stroke-linecap:round;stroke-linejoin:round;stroke-dasharray:none;stroke-opacity:0.43553;paint-order:stroke markers fill"
       id="circle25"
       cx="29.402878"
       cy="81.095154"
       r="4.8507438" />
    <path
       style="fill:none;fill-opacity:1;stroke:#75ff5b;stroke-width:2.794;stroke-linecap:round;stroke-linejoin:round;stroke-dasharray:none;stroke-opacity:0.43553;paint-order:stroke markers fill"
       d="m 29.402866,85.945896 3e-5,15.535514 -7.55835,7.20408"
       id="path25" />
    <path
       style="fill:none;fill-opacity:1;stroke:#75ff5b;stroke-width:2.794;stroke-linecap:round;stroke-linejoin:round;stroke-dasharray:none;stroke-opacity:0.43553;paint-order:stroke markers fill"
       d="m 29.402896,101.48141 7.66625,7.49224"
       id="path26" />
    <path
       style="fill:none;fill-opacity:1;stroke:#75ff5b;stroke-width:2.794;stroke-linecap:round;stroke-linejoin:round;stroke-dasharray:none;stroke-opacity:0.43553;paint-order:stroke markers fill"
       d="m 38.798146,94.277336 -9.39525,-3.50599 -9.47943,3.55402"
       id="path27" />
    <path
       id="path49"
       style="font-variation-settings:'wght' 618;fill:url(#linearGradient53);stroke:url(#linearGradient54);stroke-width:8.946;stroke-linecap:round;stroke-linejoin:round;stroke-dasharray:none;stroke-dashoffset:54.0601;stroke-opacity:1;paint-order:stroke markers fill"
       d="m 134.39662,151.96962 c -5.11438,0 -9.26041,4.14603 -9.26041,9.26042 v 38.15166 c 0,5.11439 4.14603,9.26042 9.26041,9.26042 h 10.81795 l 10.65929,18.46244 10.6593,-18.46244 h 10.81743 c 5.11439,0 9.26042,-4.14603 9.26042,-9.26042 v -38.15166 c 0,-5.11439 -4.14603,-9.26042 -9.26042,-9.26042 z"
       sodipodi:nodetypes="sssscccsssss"
       inkscape:export-filename="..\Extra UI\FactoriesNotEnoughPeopleErrorv002.png"
       inkscape:export-xdpi="350"
       inkscape:export-ydpi="350" />
    <path
       id="path50"
       style="fill:url(#linearGradient52);stroke-width:0.913009;stroke-linecap:round;stroke-linejoin:round;paint-order:stroke markers fill"
       d="m 163.43942,161.80057 c -0.66429,-8.9e-4 -1.20311,0.5377 -1.20251,1.20199 v 1.61903 h -2.99414 c -0.72967,3e-5 -1.32111,0.59169 -1.32085,1.32136 v 31.13867 c -2.6e-4,0.72968 0.59117,1.32134 1.32085,1.32137 h 16.39694 c 0.72988,2.6e-4 1.32162,-0.59149 1.32136,-1.32137 v -31.13867 c 2.6e-4,-0.72987 -0.59149,-1.32162 -1.32136,-1.32136 h -3.11868 v -1.61903 c 6e-4,-0.66348 -0.53696,-1.20173 -1.20044,-1.20199 z m -19.30632,2.79259 c -3.27089,0 -5.95106,2.68069 -5.95106,5.95158 0,2.8139 1.98405,5.18938 4.62091,5.79861 v 2.49494 l -8.16539,3.06234 c -0.6883,0.25781 -1.03721,1.02483 -0.77928,1.71308 0.2576,0.68878 1.02505,1.03802 1.71359,0.7798 l 7.23108,-2.71147 v 7.71013 l -6.78667,6.46885 c -0.53243,0.50717 -0.55256,1.35005 -0.0449,1.88206 0.50721,0.53159 1.34928,0.55149 1.88102,0.0444 l 6.26938,-5.97535 6.38308,6.23787 c 0.52549,0.51483 1.36903,0.50557 1.88309,-0.0207 0.51372,-0.5258 0.50377,-1.36854 -0.0222,-1.88206 l -6.90242,-6.74532 v -7.72408 l 7.15306,2.66909 c 0.68898,0.25806 1.45662,-0.092 1.71359,-0.78135 0.25664,-0.68853 -0.0934,-1.45475 -0.78187,-1.71152 l -8.08478,-3.01687 v -2.49391 c 2.63676,-0.60932 4.62143,-2.98479 4.62143,-5.79861 0,-3.2709 -2.68068,-5.95106 -5.95158,-5.95106 z m 0,2.66289 c 1.83262,0 3.28869,1.45605 3.28869,3.28869 0,1.83263 -1.45607,3.2892 -3.28869,3.2892 -1.83262,0 -3.2892,-1.45657 -3.2892,-3.2892 0,-1.83264 1.45658,-3.28869 3.2892,-3.28869 z m 16.42949,0.006 h 13.75627 v 28.498 h -13.75627 z m 2.32337,23.57479 c -0.6418,1.6e-4 -1.16204,0.5204 -1.1622,1.1622 v 1.4981 c -1.2e-4,0.642 0.5202,1.16256 1.1622,1.16272 h 9.10901 c 0.6422,1.2e-4 1.16284,-0.52052 1.16272,-1.16272 v -1.4981 c -1.6e-4,-0.642 -0.52072,-1.16232 -1.16272,-1.1622 z"
       sodipodi:nodetypes="cccsccccccccccccsccccccccscccsccccscccsccssssscccccccccccccc" />
  </g>
</svg>
