<?xml version="1.0" encoding="UTF-8" standalone="no"?>
<!-- Created with Inkscape (http://www.inkscape.org/) -->

<svg
   width="210mm"
   height="297mm"
   viewBox="0 0 210 297"
   version="1.1"
   id="svg1"
   inkscape:version="1.4 (86a8ad7, 2024-10-11)"
   sodipodi:docname="TrashIcon.svg"
   xmlns:inkscape="http://www.inkscape.org/namespaces/inkscape"
   xmlns:sodipodi="http://sodipodi.sourceforge.net/DTD/sodipodi-0.dtd"
   xmlns="http://www.w3.org/2000/svg"
   xmlns:svg="http://www.w3.org/2000/svg">
  <sodipodi:namedview
     id="namedview1"
     pagecolor="#ffffff"
     bordercolor="#000000"
     borderopacity="0.25"
     inkscape:showpageshadow="2"
     inkscape:pageopacity="0.0"
     inkscape:pagecheckerboard="0"
     inkscape:deskcolor="#d1d1d1"
     inkscape:document-units="mm"
     inkscape:zoom="0.68862935"
     inkscape:cx="407.33088"
     inkscape:cy="404.42656"
     inkscape:window-width="1920"
     inkscape:window-height="991"
     inkscape:window-x="-9"
     inkscape:window-y="-9"
     inkscape:window-maximized="1"
     inkscape:current-layer="layer1" />
  <defs
     id="defs1">
    <inkscape:path-effect
       effect="fillet_chamfer"
       id="path-effect8"
       is_visible="true"
       lpeversion="1"
       nodesatellites_param="F,0,0,1,0,3.1749999,0,1 @ F,0,0,1,0,3.1749999,0,1 @ F,0,0,1,0,3.1749999,0,1 @ F,0,0,1,0,3.1749999,0,1"
       radius="11"
       unit="px"
       method="auto"
       mode="F"
       chamfer_steps="1"
       flexible="false"
       use_knot_distance="true"
       apply_no_radius="true"
       apply_with_radius="true"
       only_selected="false"
       hide_knots="false" />
    <inkscape:path-effect
       effect="fillet_chamfer"
       id="path-effect6"
       is_visible="true"
       lpeversion="1"
       nodesatellites_param="F,0,0,1,0,3.1749999,0,1 @ F,0,0,1,0,3.1749999,0,1 @ F,0,0,1,0,3.1749999,0,1 @ F,0,0,1,0,3.1749999,0,1"
       radius="11"
       unit="px"
       method="auto"
       mode="F"
       chamfer_steps="1"
       flexible="false"
       use_knot_distance="true"
       apply_no_radius="true"
       apply_with_radius="true"
       only_selected="false"
       hide_knots="false" />
    <inkscape:path-effect
       effect="fillet_chamfer"
       id="path-effect5"
       is_visible="true"
       lpeversion="1"
       nodesatellites_param="F,0,0,1,0,1.8520833,0,1 @ F,0,0,1,0,1.8520833,0,1 @ F,0,0,1,0,1.8520833,0,1 @ F,0,0,1,0,1.8520833,0,1"
       radius="8"
       unit="px"
       method="auto"
       mode="F"
       chamfer_steps="1"
       flexible="false"
       use_knot_distance="true"
       apply_no_radius="true"
       apply_with_radius="true"
       only_selected="false"
       hide_knots="false" />
    <inkscape:path-effect
       effect="fillet_chamfer"
       id="path-effect3"
       is_visible="true"
       lpeversion="1"
       nodesatellites_param="F,0,0,1,0,2.9104166,0,1 @ F,0,0,1,0,2.9104166,0,1 @ F,0,0,1,0,2.9104166,0,1 @ F,0,0,1,0,2.9104166,0,1"
       radius="11"
       unit="px"
       method="auto"
       mode="F"
       chamfer_steps="1"
       flexible="false"
       use_knot_distance="true"
       apply_no_radius="true"
       apply_with_radius="true"
       only_selected="false"
       hide_knots="false" />
    <inkscape:path-effect
       effect="fillet_chamfer"
       id="path-effect3-1-6-4"
       is_visible="true"
       lpeversion="1"
       nodesatellites_param="F,0,0,1,0,9.9731317,0,1 @ F,0,0,1,0,9.9731317,0,1 @ F,0,0,1,0,9.9731317,0,1 @ F,0,0,1,0,9.9731317,0,1"
       radius="45"
       unit="px"
       method="auto"
       mode="F"
       chamfer_steps="1"
       flexible="false"
       use_knot_distance="true"
       apply_no_radius="true"
       apply_with_radius="true"
       only_selected="false"
       hide_knots="false" />
    <inkscape:path-effect
       effect="fillet_chamfer"
       id="path-effect1-4-8-3"
       is_visible="true"
       lpeversion="1"
       nodesatellites_param="F,0,0,1,0,6.8791665,0,1 @ F,0,0,1,0,6.8791665,0,1 @ F,0,0,1,0,6.8791665,0,1 @ F,0,0,1,0,6.8791665,0,1"
       radius="26"
       unit="px"
       method="auto"
       mode="F"
       chamfer_steps="1"
       flexible="false"
       use_knot_distance="true"
       apply_no_radius="true"
       apply_with_radius="true"
       only_selected="false"
       hide_knots="false" />
    <inkscape:path-effect
       effect="fillet_chamfer"
       id="path-effect5-5"
       is_visible="true"
       lpeversion="1"
       nodesatellites_param="F,0,0,1,0,1.8520833,0,1 @ F,0,0,1,0,1.8520833,0,1 @ F,0,0,1,0,1.8520833,0,1 @ F,0,0,1,0,1.8520833,0,1"
       radius="8"
       unit="px"
       method="auto"
       mode="F"
       chamfer_steps="1"
       flexible="false"
       use_knot_distance="true"
       apply_no_radius="true"
       apply_with_radius="true"
       only_selected="false"
       hide_knots="false" />
    <inkscape:path-effect
       effect="fillet_chamfer"
       id="path-effect3-1-6-4-3"
       is_visible="true"
       lpeversion="1"
       nodesatellites_param="F,0,0,1,0,9.9731317,0,1 @ F,0,0,1,0,9.9731317,0,1 @ F,0,0,1,0,9.9731317,0,1 @ F,0,0,1,0,9.9731317,0,1"
       radius="45"
       unit="px"
       method="auto"
       mode="F"
       chamfer_steps="1"
       flexible="false"
       use_knot_distance="true"
       apply_no_radius="true"
       apply_with_radius="true"
       only_selected="false"
       hide_knots="false" />
    <inkscape:path-effect
       effect="fillet_chamfer"
       id="path-effect1-4-8-3-0"
       is_visible="true"
       lpeversion="1"
       nodesatellites_param="F,0,0,1,0,6.8791665,0,1 @ F,0,0,1,0,6.8791665,0,1 @ F,0,0,1,0,6.8791665,0,1 @ F,0,0,1,0,6.8791665,0,1"
       radius="26"
       unit="px"
       method="auto"
       mode="F"
       chamfer_steps="1"
       flexible="false"
       use_knot_distance="true"
       apply_no_radius="true"
       apply_with_radius="true"
       only_selected="false"
       hide_knots="false" />
    <inkscape:path-effect
       effect="fillet_chamfer"
       id="path-effect5-7"
       is_visible="true"
       lpeversion="1"
       nodesatellites_param="F,0,0,1,0,1.8520833,0,1 @ F,0,0,1,0,1.8520833,0,1 @ F,0,0,1,0,1.8520833,0,1 @ F,0,0,1,0,1.8520833,0,1"
       radius="8"
       unit="px"
       method="auto"
       mode="F"
       chamfer_steps="1"
       flexible="false"
       use_knot_distance="true"
       apply_no_radius="true"
       apply_with_radius="true"
       only_selected="false"
       hide_knots="false" />
  </defs>
  <g
     inkscape:label="Layer 1"
     inkscape:groupmode="layer"
     id="layer1">
    <path
       style="font-variation-settings:'wght' 700;fill:#f6b9aa;fill-opacity:1;stroke:#bd2318;stroke-width:1.69402977;stroke-linecap:round;stroke-linejoin:round;stroke-dasharray:none;stroke-opacity:1;paint-order:markers fill stroke"
       id="path1-3-7-2"
       width="43.608665"
       height="43.608665"
       x="62.339264"
       y="116.89812"
       inkscape:path-effect="#path-effect3-1-6-4"
       sodipodi:type="rect"
       d="m 72.312396,116.89812 h 23.662402 a 9.9731317,9.9731317 45 0 1 9.973132,9.97313 v 23.6624 a 9.9731317,9.9731317 135 0 1 -9.973132,9.97313 H 72.312396 a 9.9731317,9.9731317 45 0 1 -9.973132,-9.97313 v -23.6624 a 9.9731317,9.9731317 135 0 1 9.973132,-9.97313 z"
       transform="matrix(1.1806168,0,0,1.1806168,21.951213,5.4276994)" />
    <path
       style="font-variation-settings:'wght' 700;fill:#ee3420;fill-opacity:1;stroke:none;stroke-width:14.9184;stroke-linecap:round;stroke-linejoin:round;paint-order:markers fill stroke"
       id="rect1-2-6-3"
       width="43.608665"
       height="43.608665"
       x="62.339264"
       y="116.89812"
       inkscape:path-effect="#path-effect1-4-8-3"
       sodipodi:type="rect"
       d="m 69.21843,116.89812 h 29.850333 a 6.8791665,6.8791665 45 0 1 6.879167,6.87916 v 29.85034 a 6.8791665,6.8791665 135 0 1 -6.879167,6.87916 H 69.21843 a 6.8791665,6.8791665 45 0 1 -6.879166,-6.87916 l 0,-29.85034 a 6.8791665,6.8791665 135 0 1 6.879166,-6.87916 z"
       transform="matrix(0.90654976,0,0,0.90654976,45.012195,43.441462)" />
    <rect
       style="fill:none;fill-opacity:1;stroke:none;stroke-width:0.14581;stroke-linecap:round;stroke-linejoin:round;stroke-dasharray:none;stroke-opacity:1;paint-order:stroke fill markers"
       id="rect312-2-0-4"
       width="106.29095"
       height="94.116127"
       x="8.8203382"
       y="-17.969345" />
    <path
       id="rect3"
       style="font-variation-settings:'wght' 700;fill:#ffffff;fill-opacity:1;stroke:none;stroke-width:2;stroke-linecap:round;stroke-linejoin:round;stroke-dasharray:none;stroke-opacity:1;paint-order:markers fill stroke"
       d="M 105.67561 157.41948 A 2.9104166 2.9104166 0 0 0 105.65984 157.55797 L 105.65984 169.79524 A 2.9104166 2.9104166 0 0 0 108.57013 172.70553 L 118.11784 172.70553 A 2.9104166 2.9104166 0 0 0 121.02856 169.79524 L 121.02856 157.55797 A 2.9104166 2.9104166 0 0 0 121.01279 157.41948 L 105.67561 157.41948 z "
       transform="matrix(1.212766,0,0,1.212766,-18.350465,-27.264069)" />
    <rect
       style="font-variation-settings:'wght' 700;fill:#ffffff;fill-opacity:1;stroke:none;stroke-width:1.41305;stroke-linecap:round;stroke-linejoin:round;stroke-dasharray:none;stroke-opacity:1;paint-order:markers fill stroke"
       id="rect4"
       width="26.703104"
       height="4.9672775"
       x="105.75797"
       y="157.24094" />
    <path
       style="font-variation-settings:'wght' 700;fill:#ffffff;fill-opacity:1;stroke:none;stroke-width:1.24555;stroke-linecap:round;stroke-linejoin:round;stroke-dasharray:none;stroke-opacity:1;paint-order:markers fill stroke"
       id="rect4-8"
       width="20.747736"
       height="4.9672775"
       x="108.73566"
       y="155.14362"
       inkscape:path-effect="#path-effect5"
       sodipodi:type="rect"
       d="m 110.58774,155.14362 h 17.04357 a 1.8520833,1.8520833 45 0 1 1.85208,1.85208 v 1.26311 a 1.8520833,1.8520833 135 0 1 -1.85208,1.85208 h -17.04357 a 1.8520833,1.8520833 45 0 1 -1.85208,-1.85208 l 0,-1.26311 a 1.8520833,1.8520833 135 0 1 1.85208,-1.85208 z"
       transform="translate(0,-1.0085705)" />
    <path
       id="path8"
       style="font-variation-settings:'wght' 700;fill:#ffffff;fill-opacity:1;stroke:none;stroke-width:1.95072;stroke-linecap:round;stroke-linejoin:round;stroke-dasharray:none;stroke-opacity:1;paint-order:markers fill stroke"
       d="m 116.8554,149.70353 a 3.1749999,3.1749999 0 0 0 -3.175,3.175 v 3.97547 a 3.1749999,3.1749999 0 0 0 3.175,3.175 h 4.50412 a 3.1749999,3.1749999 0 0 0 3.175,-3.175 v -3.97547 a 3.1749999,3.1749999 0 0 0 -3.175,-3.175 z m 0.709,1.62523 h 3.08612 a 2.1755099,2.1755099 0 0 1 2.17557,2.17558 v 2.72386 a 2.1755099,2.1755099 0 0 1 -2.17557,2.17558 h -3.08612 a 2.1755099,2.1755099 0 0 1 -2.17558,-2.17558 v -2.72386 a 2.1755099,2.1755099 0 0 1 2.17558,-2.17558 z" />
    <path
       style="fill:#544dd4;stroke-linecap:round;stroke-linejoin:round;paint-order:markers fill stroke"
       d="m 119.10953,166.83298 v 12.17028"
       id="path13" />
    <path
       style="fill:#bd2318;stroke-linecap:round;stroke-linejoin:round;paint-order:markers fill stroke"
       d="m 119.10938,165.89062 a 0.94199997,0.94199997 0 0 0 -0.94141,0.94141 v 12.17188 a 0.94199997,0.94199997 0 0 0 0.94141,0.9414 0.94199997,0.94199997 0 0 0 0.9414,-0.9414 v -12.17188 a 0.94199997,0.94199997 0 0 0 -0.9414,-0.94141 z"
       id="path14" />
    <path
       style="fill:#544dd4;stroke-linecap:round;stroke-linejoin:round;paint-order:markers fill stroke"
       d="m 115.09346,168.37821 v 9.07982"
       id="path11" />
    <path
       style="fill:#bd2318;stroke-linecap:round;stroke-linejoin:round;paint-order:markers fill stroke"
       d="m 115.09375,167.43555 a 0.94199997,0.94199997 0 0 0 -0.94141,0.94336 v 9.08007 a 0.94199997,0.94199997 0 0 0 0.94141,0.94141 0.94199997,0.94199997 0 0 0 0.94141,-0.94141 v -9.08007 a 0.94199997,0.94199997 0 0 0 -0.94141,-0.94336 z"
       id="path12" />
    <path
       style="fill:#544dd4;stroke-linecap:round;stroke-linejoin:round;paint-order:markers fill stroke"
       d="m 123.1256,168.37821 v 9.07982"
       id="path15" />
    <path
       style="fill:#bd2318;stroke-linecap:round;stroke-linejoin:round;paint-order:markers fill stroke"
       d="m 123.125,167.43555 a 0.94199997,0.94199997 0 0 0 -0.94141,0.94336 v 9.08007 a 0.94199997,0.94199997 0 0 0 0.94141,0.94141 0.94199997,0.94199997 0 0 0 0.94336,-0.94141 v -9.08007 a 0.94199997,0.94199997 0 0 0 -0.94336,-0.94336 z"
       id="path16" />
    <path
       style="font-variation-settings:'wght' 700;fill:#f6b9aa;fill-opacity:1;stroke:#bd2318;stroke-width:1.69403;stroke-linecap:round;stroke-linejoin:round;stroke-dasharray:none;stroke-opacity:1;paint-order:markers fill stroke"
       id="path1-3-7-2-8"
       width="43.608665"
       height="43.608665"
       x="62.339264"
       y="116.89812"
       inkscape:path-effect="#path-effect3-1-6-4-3"
       sodipodi:type="rect"
       d="m 72.312396,116.89812 h 23.662402 a 9.9731317,9.9731317 45 0 1 9.973132,9.97313 v 23.6624 a 9.9731317,9.9731317 135 0 1 -9.973132,9.97313 H 72.312396 a 9.9731317,9.9731317 45 0 1 -9.973132,-9.97313 v -23.6624 a 9.9731317,9.9731317 135 0 1 9.973132,-9.97313 z"
       transform="matrix(1.1806168,0,0,1.1806168,20.066441,-57.507195)"
       inkscape:export-filename="TrashIconv1.png"
       inkscape:export-xdpi="300"
       inkscape:export-ydpi="300" />
    <path
       style="font-variation-settings:'wght' 700;fill:#ee3420;fill-opacity:1;stroke:none;stroke-width:14.9184;stroke-linecap:round;stroke-linejoin:round;paint-order:markers fill stroke"
       id="rect1-2-6-3-7"
       width="43.608665"
       height="43.608665"
       x="62.339264"
       y="116.89812"
       inkscape:path-effect="#path-effect1-4-8-3-0"
       sodipodi:type="rect"
       d="m 69.21843,116.89812 h 29.850333 a 6.8791665,6.8791665 45 0 1 6.879167,6.87916 v 29.85034 a 6.8791665,6.8791665 135 0 1 -6.879167,6.87916 H 69.21843 a 6.8791665,6.8791665 45 0 1 -6.879166,-6.87916 l 0,-29.85034 a 6.8791665,6.8791665 135 0 1 6.879166,-6.87916 z"
       transform="matrix(0.90654976,0,0,0.90654976,43.127423,-19.493432)" />
    <g
       id="g19"
       transform="matrix(0.89825801,0,0,0.89825801,14.109708,13.717103)">
      <path
         id="path17"
         style="font-variation-settings:'wght' 700;fill:#ffffff;fill-opacity:1;stroke:none;stroke-width:2.42553;stroke-linecap:round;stroke-linejoin:round;stroke-dasharray:none;stroke-opacity:1;paint-order:markers fill stroke"
         d="m 107.92468,100.71427 a 3.5296543,3.5296543 0 0 0 -0.0191,0.16794 v 14.84096 a 3.5296543,3.5296543 0 0 0 3.5295,3.5295 h 11.57914 a 3.5296543,3.5296543 0 0 0 3.53001,-3.5295 v -14.84096 a 3.5296543,3.5296543 0 0 0 -0.0196,-0.16794 z m 9.29969,2.2412 a 0.94199997,0.94199997 0 0 1 0.94154,0.94155 v 12.17186 a 0.94199997,0.94199997 0 0 1 -0.94154,0.94155 0.94199997,0.94199997 0 0 1 -0.94103,-0.94155 v -12.17186 a 0.94199997,0.94199997 0 0 1 0.94103,-0.94155 z m -4.01526,1.54513 a 0.94199997,0.94199997 0 0 1 0.94103,0.94361 v 9.08007 a 0.94199997,0.94199997 0 0 1 -0.94103,0.94102 0.94199997,0.94199997 0 0 1 -0.94154,-0.94102 v -9.08007 a 0.94199997,0.94199997 0 0 1 0.94154,-0.94361 z m 8.03103,0 a 0.94199997,0.94199997 0 0 1 0.94362,0.94361 v 9.08007 a 0.94199997,0.94199997 0 0 1 -0.94362,0.94102 0.94199997,0.94199997 0 0 1 -0.94154,-0.94102 v -9.08007 a 0.94199997,0.94199997 0 0 1 0.94154,-0.94361 z" />
      <rect
         style="font-variation-settings:'wght' 700;fill:#ffffff;fill-opacity:1;stroke:none;stroke-width:1.41305;stroke-linecap:round;stroke-linejoin:round;stroke-dasharray:none;stroke-opacity:1;paint-order:markers fill stroke"
         id="rect4-0"
         width="26.703104"
         height="4.9672775"
         x="103.8732"
         y="94.306038" />
      <path
         style="font-variation-settings:'wght' 700;fill:#ffffff;fill-opacity:1;stroke:none;stroke-width:1.24555;stroke-linecap:round;stroke-linejoin:round;stroke-dasharray:none;stroke-opacity:1;paint-order:markers fill stroke"
         id="rect4-8-3"
         width="20.747736"
         height="4.9672775"
         x="108.73566"
         y="155.14362"
         inkscape:path-effect="#path-effect5-7"
         sodipodi:type="rect"
         d="m 110.58774,155.14362 h 17.04357 a 1.8520833,1.8520833 45 0 1 1.85208,1.85208 v 1.26311 a 1.8520833,1.8520833 135 0 1 -1.85208,1.85208 h -17.04357 a 1.8520833,1.8520833 45 0 1 -1.85208,-1.85208 l 0,-1.26311 a 1.8520833,1.8520833 135 0 1 1.85208,-1.85208 z"
         transform="translate(-1.884772,-63.943464)" />
      <path
         id="path8-8"
         style="font-variation-settings:'wght' 700;fill:#ffffff;fill-opacity:1;stroke:none;stroke-width:1.95072;stroke-linecap:round;stroke-linejoin:round;stroke-dasharray:none;stroke-opacity:1;paint-order:markers fill stroke"
         d="m 114.97063,86.768636 a 3.1749999,3.1749999 0 0 0 -3.175,3.175 v 3.97547 a 3.1749999,3.1749999 0 0 0 3.175,3.175003 h 4.50412 a 3.1749999,3.1749999 0 0 0 3.175,-3.175003 v -3.97547 a 3.1749999,3.1749999 0 0 0 -3.175,-3.175 z m 0.709,1.62523 h 3.08612 a 2.1755099,2.1755099 0 0 1 2.17557,2.17558 v 2.72386 a 2.1755099,2.1755099 0 0 1 -2.17557,2.175583 h -3.08612 a 2.1755099,2.1755099 0 0 1 -2.17558,-2.175583 v -2.72386 a 2.1755099,2.1755099 0 0 1 2.17558,-2.17558 z" />
      <path
         style="fill:#544dd4;stroke-linecap:round;stroke-linejoin:round;paint-order:markers fill stroke"
         d="m 113.20869,105.44332 v 9.07982"
         id="path11-2" />
    </g>
  </g>
</svg>
